<svg role="img" aria-labelledby="efT efD" xmlns="http://www.w3.org/2000/svg" width="100%" height="auto" viewBox="0 0 1900 1780" preserveAspectRatio="xMidYMid meet" style="max-width:1900px;display:block;margin:auto;" font-family="Pretendard, 'Malgun Gothic', sans-serif">
  <title id="efT">에신(llm-dependent-agent-create) 흐름도</title>
  <desc id="efD">LLM 의존형 에이전트 제조 공장 에신의 Phase 0부터 9까지 시간 순서, 모드별(1a/1b/1c) 분기, PO 승인 게이트, Phase 6 3단 조립 순서, V3.12 재사용증거·실행환경·비가역안전 게이트 위치, 운영 루프의 Phase 1 회귀를 정리한 흐름도.</desc>

  <defs>
    <marker id="efarw" viewBox="0 0 10 10" markerWidth="9" markerHeight="9" refX="8" refY="5" orient="auto-start-reverse">
      <path d="M0,0 L9,5 L0,10 z" fill="#2D6A4F"/>
    </marker>
    <marker id="efarwg" viewBox="0 0 10 10" markerWidth="9" markerHeight="9" refX="8" refY="5" orient="auto-start-reverse">
      <path d="M0,0 L9,5 L0,10 z" fill="#8A7236"/>
    </marker>
    <marker id="efarwr" viewBox="0 0 10 10" markerWidth="9" markerHeight="9" refX="8" refY="5" orient="auto-start-reverse">
      <path d="M0,0 L9,5 L0,10 z" fill="#B33A3A"/>
    </marker>
  </defs>

  <rect width="1900" height="1780" fill="#FAFAF7"/>

  <!-- HEADER -->
  <rect x="90" y="100" width="8" height="52" fill="#C9A961"/>
  <text x="120" y="86" font-size="34" font-weight="800" fill="#0A1F14">에신 — 흐름도</text>
  <text x="560" y="86" font-size="22" font-weight="600" fill="#2D6A4F">언제 무엇 다음에 · 게이트 · 분기 (시간 순서)</text>
  <text x="120" y="116" font-size="20" fill="#3A3A30">Phase 0 → 9, 모드(1a/1b/1c)·인프라(A/B) 분기 — 정적 구조는 llm-dependent-agent-create_relations.svg 참조</text>
  <text x="1840" y="78" font-size="20" font-weight="700" fill="#8A7236" text-anchor="end">FLOW</text>
  <text x="1840" y="104" font-size="20" fill="#3A3A30" text-anchor="end">SKILL.md 기준 · 2026-09-16</text>
  <line x1="90" y1="134" x2="1840" y2="134" stroke="#E6E2D6" stroke-width="2"/>

  <!-- 범례 -->
  <g transform="translate(1400,160)">
    <rect width="440" height="150" rx="10" fill="#FFFFFF" stroke="#5F6B7A" stroke-width="2"/>
    <text x="20" y="38" font-size="20" font-weight="700" fill="#0A1F14">범례</text>
    <rect x="20" y="44" width="22" height="22" fill="#FFF8E7" stroke="#C9A961" stroke-width="2"/>
    <text x="52" y="61" font-size="19" fill="#0A1F14">PO 접점 (묻고 멈춤)</text>
    <rect x="240" y="44" width="22" height="22" fill="#FFFFFF" stroke="#2D6A4F" stroke-width="2"/>
    <text x="272" y="61" font-size="19" fill="#0A1F14">자율 실행</text>
    <rect x="20" y="76" width="22" height="22" fill="#FFFFFF" stroke="#B33A3A" stroke-width="2.5"/>
    <text x="52" y="93" font-size="19" fill="#0A1F14">필수 게이트 (◆) · ★V3.12 게이트 배지</text>
    <text x="20" y="122" font-size="19" fill="#3A3A30">점선 화살표 = 반려·라운드 반복 복귀</text>
  </g>

  <!-- ============ ROW 1 — 기획 ============ -->
  <text x="90" y="220" font-size="22" font-weight="700" fill="#0A1F14">그룹 1 — 기획 (Phase 0~2.5)</text>

  <!-- B1 Phase0 -->
  <g transform="translate(90,240)">
    <rect width="280" height="120" rx="10" fill="#FFF8E7" stroke="#C9A961" stroke-width="2.5"/>
    <rect x="14" y="12" width="58" height="30" rx="6" fill="#C9A961"/>
    <text x="43" y="33" font-size="19" font-weight="800" fill="#FFFFFF" text-anchor="middle">PO</text>
    <text x="140" y="52" font-size="21" font-weight="800" fill="#0A1F14" text-anchor="middle">Phase 0</text>
    <text x="140" y="76" font-size="20" fill="#3A3A30" text-anchor="middle">인프라 A/B 판별</text>
    <text x="140" y="98" font-size="20" fill="#3A3A30" text-anchor="middle">모드 1a/1b/1c 판별</text>
  </g>
  <line x1="370" y1="300" x2="418" y2="300" stroke="#2D6A4F" stroke-width="3" marker-end="url(#efarw)"/>

  <!-- B2 Phase1 -->
  <g transform="translate(420,240)">
    <rect width="280" height="120" rx="10" fill="#FFF8E7" stroke="#C9A961" stroke-width="2.5"/>
    <rect x="14" y="12" width="58" height="30" rx="6" fill="#C9A961"/>
    <text x="43" y="33" font-size="19" font-weight="800" fill="#FFFFFF" text-anchor="middle">PO</text>
    <text x="140" y="52" font-size="21" font-weight="800" fill="#0A1F14" text-anchor="middle">Phase 1</text>
    <text x="140" y="76" font-size="20" fill="#3A3A30" text-anchor="middle">요구 발굴 — 모드별 분기</text>
    <text x="140" y="98" font-size="20" fill="#3A3A30" text-anchor="middle">1a 10R · 1b 5+N · 1c 4+3+N</text>
  </g>
  <line x1="700" y1="300" x2="748" y2="300" stroke="#2D6A4F" stroke-width="3" marker-end="url(#efarw)"/>

  <!-- G1 Phase2 게이트 -->
  <g transform="translate(750,240)">
    <rect width="230" height="120" rx="10" fill="#FFFFFF" stroke="#B33A3A" stroke-width="2.5"/>
    <polygon points="203,10 219,20 203,30 187,20" fill="#B33A3A"/>
    <text x="115" y="48" font-size="20" font-weight="800" fill="#B33A3A" text-anchor="middle">Phase 2 게이트</text>
    <text x="115" y="74" font-size="20" fill="#0A1F14" text-anchor="middle">MBO 목표서</text>
    <text x="115" y="98" font-size="20" font-weight="700" fill="#B33A3A" text-anchor="middle">PO 승인? (◆)</text>
  </g>
  <path d="M 980,265 Q 1020,230 980,240" fill="none" stroke="#B33A3A" stroke-width="2" stroke-dasharray="5 4" marker-end="url(#efarwr)"/>
  <text x="865" y="392" font-size="19" font-weight="700" fill="#B33A3A" text-anchor="middle">반려 → 목표서 수정 후 재승인</text>
  <path d="M 800,362 Q 750,400 800,362" fill="none" stroke="#B33A3A" stroke-width="2" stroke-dasharray="5 4" marker-end="url(#efarwr)"/>
  <line x1="980" y1="300" x2="1028" y2="300" stroke="#B33A3A" stroke-width="3" marker-end="url(#efarwr)"/>

  <!-- G2 Phase2.5 게이트 -->
  <g transform="translate(1030,240)">
    <rect width="230" height="120" rx="10" fill="#FFFFFF" stroke="#B33A3A" stroke-width="2.5"/>
    <polygon points="203,10 219,20 203,30 187,20" fill="#B33A3A"/>
    <text x="115" y="48" font-size="20" font-weight="800" fill="#B33A3A" text-anchor="middle">Phase 2.5 게이트</text>
    <text x="115" y="74" font-size="20" fill="#0A1F14" text-anchor="middle">도메인 심층 리서치</text>
    <text x="115" y="98" font-size="20" font-weight="700" fill="#B33A3A" text-anchor="middle">이 깊이 OK? (◆)</text>
  </g>
  <path d="M 1080,362 Q 1030,400 1080,362" fill="none" stroke="#B33A3A" stroke-width="2" stroke-dasharray="5 4" marker-end="url(#efarwr)"/>
  <text x="1145" y="392" font-size="19" font-weight="700" fill="#B33A3A" text-anchor="middle">부족 → 4트랙 추가 조사</text>

  <path d="M 1260,300 Q 1330,300 1330,440 Q 1330,480 200,480 Q 90,480 90,530" fill="none" stroke="#2D6A4F" stroke-width="3" marker-end="url(#efarw)"/>
  <text x="1340" y="420" font-size="20" font-weight="700" fill="#2D6A4F">게이트 통과 → 그룹 2 (제작)</text>

  <!-- ============ ROW 2 — 제작 ============ -->
  <text x="90" y="500" font-size="22" font-weight="700" fill="#0A1F14">그룹 2 — 제작 (Phase 3~6) 공장 심장</text>

  <!-- B3 Phase3 -->
  <g transform="translate(90,530)">
    <rect width="260" height="130" rx="10" fill="#FFFFFF" stroke="#2D6A4F" stroke-width="2"/>
    <rect x="14" y="12" width="84" height="30" rx="6" fill="#2D6A4F"/>
    <text x="56" y="33" font-size="19" font-weight="800" fill="#FFFFFF" text-anchor="middle">AUTO</text>
    <rect x="112" y="12" width="134" height="30" rx="6" fill="#B33A3A"/>
    <text x="179" y="33" font-size="19" font-weight="800" fill="#FFFFFF" text-anchor="middle">★V3.12 (3~4)</text>
    <text x="130" y="60" font-size="21" font-weight="800" fill="#0A1F14" text-anchor="middle">Phase 3 — 발굴</text>
    <text x="130" y="84" font-size="20" fill="#3A3A30" text-anchor="middle">OSS·HF·MCP·사내</text>
    <text x="130" y="106" font-size="19" fill="#B33A3A" text-anchor="middle">라이선스 2경로 판정 게이트</text>
  </g>
  <line x1="350" y1="595" x2="398" y2="595" stroke="#2D6A4F" stroke-width="3" marker-end="url(#efarw)"/>

  <!-- B4 Phase4 -->
  <g transform="translate(400,530)">
    <rect width="260" height="130" rx="10" fill="#FFF8E7" stroke="#C9A961" stroke-width="2.5"/>
    <rect x="14" y="12" width="84" height="30" rx="6" fill="#2D6A4F"/>
    <text x="56" y="33" font-size="19" font-weight="800" fill="#FFFFFF" text-anchor="middle">AUTO</text>
    <text x="130" y="58" font-size="21" font-weight="800" fill="#0A1F14" text-anchor="middle">Phase 4</text>
    <text x="130" y="82" font-size="20" fill="#3A3A30" text-anchor="middle">분해·검증 — BOM 5분류</text>
    <text x="130" y="104" font-size="19" fill="#B33A3A" text-anchor="middle">★공장 심장·코드포렌식</text>
  </g>
  <line x1="660" y1="595" x2="708" y2="595" stroke="#2D6A4F" stroke-width="3" marker-end="url(#efarw)"/>

  <!-- B5 Phase5 -->
  <g transform="translate(710,530)">
    <rect width="300" height="130" rx="10" fill="#FFFFFF" stroke="#2D6A4F" stroke-width="2"/>
    <rect x="14" y="12" width="84" height="30" rx="6" fill="#2D6A4F"/>
    <text x="56" y="33" font-size="19" font-weight="800" fill="#FFFFFF" text-anchor="middle">AUTO</text>
    <text x="150" y="58" font-size="21" font-weight="800" fill="#0A1F14" text-anchor="middle">Phase 5</text>
    <text x="150" y="82" font-size="20" fill="#3A3A30" text-anchor="middle">설계 검증</text>
    <text x="150" y="104" font-size="19" fill="#3A3A30" text-anchor="middle">5A S3·M5·L10 + 5B(M·L만)</text>
  </g>
  <path d="M 860,662 Q 860,700 810,662" fill="none" stroke="#8A7236" stroke-width="2" stroke-dasharray="5 4" marker-end="url(#efarwg)"/>
  <text x="790" y="722" font-size="19" font-weight="700" fill="#8A7236" text-anchor="middle">라운드 반복 (S3·M5·L10)</text>
  <line x1="1010" y1="595" x2="1058" y2="595" stroke="#2D6A4F" stroke-width="3" marker-end="url(#efarw)"/>

  <!-- G3 게이트 5->6 진입 -->
  <g transform="translate(1060,530)">
    <rect width="270" height="130" rx="10" fill="#FFFFFF" stroke="#B33A3A" stroke-width="2.5"/>
    <polygon points="243,10 259,20 243,30 227,20" fill="#B33A3A"/>
    <text x="135" y="48" font-size="19" font-weight="800" fill="#B33A3A" text-anchor="middle">Phase 5→6 진입 게이트</text>
    <text x="135" y="74" font-size="20" fill="#0A1F14" text-anchor="middle">BOM 100점 · Cross</text>
    <text x="135" y="98" font-size="20" font-weight="700" fill="#B33A3A" text-anchor="middle">Validator 동의? (◆)</text>
  </g>
  <path d="M 1110,662 Q 1060,700 1110,662" fill="none" stroke="#B33A3A" stroke-width="2" stroke-dasharray="5 4" marker-end="url(#efarwr)"/>
  <text x="1110" y="722" font-size="19" font-weight="700" fill="#B33A3A" text-anchor="middle">미통과 → 5A 재라운드</text>
  <text x="1440" y="722" font-size="19" font-weight="700" fill="#8A7236" text-anchor="middle">한도(S3·M5·L10) 도달 시 → PO 결정</text>

  <path d="M 1330,595 Q 1400,595 1400,780 Q 1400,820 200,820 Q 90,820 90,870" fill="none" stroke="#2D6A4F" stroke-width="3" marker-end="url(#efarw)"/>
  <text x="1410" y="760" font-size="20" font-weight="700" fill="#2D6A4F">게이트 통과 → Phase 6 조립</text>

  <!-- ============ ROW 3 — Phase 6 3단 + Phase7 ============ -->
  <text x="90" y="850" font-size="22" font-weight="700" fill="#0A1F14">그룹 2 계속 — Phase 6 조립 (3단, 모드별 순서 상이)</text>

  <!-- Phase6 복합 박스 -->
  <g transform="translate(90,870)">
    <rect width="900" height="210" rx="12" fill="#FFFFFF" stroke="#2D6A4F" stroke-width="2"/>
    <rect x="490" y="10" width="380" height="34" rx="6" fill="#B33A3A"/>
    <text x="680" y="33" font-size="19" font-weight="800" fill="#FFFFFF" text-anchor="middle">★V3.12 실행환경 probe (Phase 6~7)</text>
    <rect x="330" y="10" width="150" height="30" rx="6" fill="#C9A961"/>
    <text x="405" y="31" font-size="19" font-weight="800" fill="#FFFFFF" text-anchor="middle">PO 조건부 접점</text>
    <text x="30" y="40" font-size="20" font-weight="800" fill="#0A1F14">Phase 6 — 3단 조립</text>
    <text x="30" y="64" font-size="19" fill="#B33A3A">실행환경 probe · 공급자 호출 규격 검증</text>

    <rect x="30" y="82" width="260" height="90" fill="#F8F6EE" stroke="#C9A961" stroke-width="1.5" rx="8"/>
    <text x="160" y="112" font-size="19" font-weight="700" fill="#8A7236" text-anchor="middle">6b 플랫폼</text>
    <text x="160" y="136" font-size="19" fill="#3A3A30" text-anchor="middle">포털 모드만</text>
    <text x="160" y="158" font-size="19" fill="#3A3A30" text-anchor="middle">인증·페이지·관리자</text>

    <text x="300" y="132" font-size="20" font-weight="900" fill="#2D6A4F">→</text>

    <rect x="320" y="82" width="260" height="90" fill="#F8F6EE" stroke="#C9A961" stroke-width="1.5" rx="8"/>
    <text x="450" y="112" font-size="19" font-weight="700" fill="#8A7236" text-anchor="middle">6c 공통 인프라</text>
    <text x="450" y="136" font-size="19" fill="#3A3A30" text-anchor="middle">배치·포털 모드만</text>
    <text x="450" y="158" font-size="19" fill="#3A3A30" text-anchor="middle">비용가드·LLM폴백·로그</text>

    <text x="590" y="132" font-size="20" font-weight="900" fill="#2D6A4F">→</text>

    <rect x="610" y="82" width="260" height="90" fill="#FFF8E7" stroke="#C9A961" stroke-width="2" rx="8"/>
    <text x="740" y="112" font-size="19" font-weight="700" fill="#8A7236" text-anchor="middle">6a 본체</text>
    <text x="740" y="136" font-size="19" fill="#3A3A30" text-anchor="middle">모든 모드 공통 (×N)</text>
    <text x="740" y="158" font-size="19" fill="#3A3A30" text-anchor="middle">7대 구성요소 조립</text>

    <text x="30" y="184" font-size="19" fill="#0A1F14">순서: 단일=6a만 · 배치=6c→6a×N · 포털=6b→6c→6a×N</text>
  </g>
  <!-- 다음 그룹으로 -->
  <path d="M 990,975 Q 1060,975 1060,1160 Q 1060,1200 200,1200 Q 90,1200 90,1250" fill="none" stroke="#2D6A4F" stroke-width="3" marker-end="url(#efarw)"/>
  <text x="1070" y="1140" font-size="20" font-weight="700" fill="#2D6A4F">조립 완료 → 그룹 3 (출하·운영)</text>

  <!-- ============ ROW 4 — 출하·운영 ============ -->
  <text x="90" y="1230" font-size="22" font-weight="700" fill="#0A1F14">그룹 3 — 출하·운영 (Phase 7~9)</text>

  <!-- Phase7 (그룹 3 소속 — 출하 검사) -->
  <g transform="translate(90,1250)">
    <rect width="380" height="130" rx="10" fill="#FFFFFF" stroke="#2D6A4F" stroke-width="2"/>
    <rect x="14" y="12" width="84" height="30" rx="6" fill="#2D6A4F"/>
    <text x="56" y="33" font-size="19" font-weight="800" fill="#FFFFFF" text-anchor="middle">AUTO</text>
    <rect x="164" y="10" width="196" height="34" rx="6" fill="#B33A3A"/>
    <text x="262" y="33" font-size="19" font-weight="800" fill="#FFFFFF" text-anchor="middle">★V3.12 비가역 안전</text>
    <text x="190" y="58" font-size="21" font-weight="800" fill="#0A1F14" text-anchor="middle">Phase 7 — 출하 검사</text>
    <text x="190" y="82" font-size="19" fill="#3A3A30" text-anchor="middle">7-1→7-2→7-3→7-4 (QC 4단)</text>
    <text x="190" y="104" font-size="19" fill="#B33A3A" text-anchor="middle">비가역 작업 안전 primitive</text>
  </g>
  <line x1="470" y1="1315" x2="518" y2="1315" stroke="#2D6A4F" stroke-width="3" marker-end="url(#efarw)"/>

  <!-- G4 QC 게이트 -->
  <g transform="translate(520,1250)">
    <rect width="260" height="130" rx="10" fill="#FFFFFF" stroke="#B33A3A" stroke-width="2.5"/>
    <polygon points="233,10 249,20 233,30 217,20" fill="#B33A3A"/>
    <text x="130" y="48" font-size="20" font-weight="800" fill="#B33A3A" text-anchor="middle">QC 게이트</text>
    <text x="130" y="74" font-size="19" fill="#0A1F14" text-anchor="middle">사용자 여정 KPI</text>
    <text x="130" y="98" font-size="20" font-weight="700" fill="#B33A3A" text-anchor="middle">통과? (◆)</text>
  </g>
  <path d="M 560,1250 Q 560,1160 500,1080" fill="none" stroke="#B33A3A" stroke-width="2" stroke-dasharray="5 4" marker-end="url(#efarwr)"/>
  <text x="600" y="1120" font-size="19" font-weight="700" fill="#B33A3A" text-anchor="middle">결함 발견 → Phase 6 복귀 (자체 제작 보강)</text>
  <line x1="780" y1="1315" x2="828" y2="1315" stroke="#2D6A4F" stroke-width="3" marker-end="url(#efarw)"/>

  <!-- Phase8 -->
  <g transform="translate(830,1250)">
    <rect width="300" height="130" rx="10" fill="#FFF8E7" stroke="#C9A961" stroke-width="2.5"/>
    <rect x="14" y="12" width="58" height="30" rx="6" fill="#C9A961"/>
    <text x="43" y="33" font-size="19" font-weight="800" fill="#FFFFFF" text-anchor="middle">PO</text>
    <text x="150" y="58" font-size="21" font-weight="800" fill="#0A1F14" text-anchor="middle">Phase 8</text>
    <text x="150" y="82" font-size="20" fill="#3A3A30" text-anchor="middle">자산화·출하</text>
    <text x="150" y="104" font-size="19" fill="#3A3A30" text-anchor="middle">등재+헌법+로컬GUI확인</text>
  </g>
  <line x1="1130" y1="1315" x2="1178" y2="1315" stroke="#2D6A4F" stroke-width="3" marker-end="url(#efarw)"/>

  <!-- Phase9 -->
  <g transform="translate(1180,1250)">
    <rect width="320" height="130" rx="10" fill="#FFFFFF" stroke="#2D6A4F" stroke-width="2"/>
    <rect x="14" y="12" width="84" height="30" rx="6" fill="#2D6A4F"/>
    <text x="56" y="33" font-size="19" font-weight="800" fill="#FFFFFF" text-anchor="middle">AUTO</text>
    <text x="160" y="58" font-size="20" font-weight="800" fill="#0A1F14" text-anchor="middle">Phase 9 — 운영 루프 (↻)</text>
    <text x="160" y="82" font-size="19" fill="#3A3A30" text-anchor="middle">에러율·응답·피드백·비용·사용률</text>
    <text x="160" y="104" font-size="19" fill="#3A3A30" text-anchor="middle">트리거 감지 → 회귀/폐기</text>
  </g>

  <!-- 회귀 루프: Phase9 -> Phase1 -->
  <path d="M 1340,1380 Q 1340,1470 1690,1470 Q 1820,1470 1820,700 Q 1820,300 700,300" fill="none" stroke="#B33A3A" stroke-width="2.5" stroke-dasharray="7 5" marker-end="url(#efarwr)"/>
  <g transform="translate(700,1440)">
    <rect width="560" height="90" rx="8" fill="#FFFFFF" stroke="#B33A3A" stroke-width="2"/>
    <text x="280" y="32" font-size="20" font-weight="800" fill="#B33A3A" text-anchor="middle">피드백 트리거 → Phase 1 회귀</text>
    <text x="280" y="60" font-size="19" fill="#3A3A30" text-anchor="middle">에러율·응답시간·피드백·사용률0·비용가드 임계값</text>
  </g>

  <!-- 하단 캡션 -->
  <line x1="90" y1="1590" x2="1840" y2="1590" stroke="#E6E2D6" stroke-width="2"/>
  <text x="965" y="1630" font-size="20" font-weight="700" fill="#0A1F14" text-anchor="middle">흐름도 = "언제 무엇 다음에" (시간 순서·게이트·분기) — 정적 구조는 llm-dependent-agent-create_relations.svg</text>
  <text x="965" y="1658" font-size="20" fill="#3A3A30" text-anchor="middle">모드별 분기는 Phase 0·1(1a/1b/1c) + Phase 6(6a·6b·6c 순서) 두 지점에서 발생</text>
  <text x="965" y="1686" font-size="20" fill="#3A3A30" text-anchor="middle">출처: 에신(llm-dependent-agent-create) SKILL.md · 2026-09-16 기준</text>

</svg>
